<svg id="Capa_1" enable-background="new 0 0 510 510" height="512" viewBox="0 0 510 510" width="512" xmlns="http://www.w3.org/2000/svg" xmlns:xlink="http://www.w3.org/1999/xlink"><linearGradient id="lg1"><stop offset="0" stop-color="#7acaa6"/><stop offset=".5725" stop-color="#09a76d"/><stop offset="1" stop-color="#026841"/></linearGradient><linearGradient id="SVGID_1_" gradientUnits="userSpaceOnUse" x1="72.87" x2="483.929" xlink:href="#lg1" y1="269.995" y2="269.995"/><linearGradient id="SVGID_2_" gradientUnits="userSpaceOnUse" x1="10.351" x2="331.338" xlink:href="#lg1" y1="269.995" y2="269.995"/><linearGradient id="lg2"><stop offset="0" stop-color="#f9f3f1"/><stop offset=".5725" stop-color="#efe2dd"/><stop offset="1" stop-color="#cdbfba"/></linearGradient><linearGradient id="SVGID_3_" gradientUnits="userSpaceOnUse" x1="32.85" x2="443.909" xlink:href="#lg2" y1="240.005" y2="240.005"/><linearGradient id="SVGID_4_" gradientUnits="userSpaceOnUse" x1="100.535" x2="347.331" xlink:href="#lg2" y1="240.005" y2="240.005"/><linearGradient id="SVGID_5_" gradientUnits="userSpaceOnUse" x1="266.838" x2="436.992" xlink:href="#lg2" y1="421.977" y2="421.977"/><linearGradient id="SVGID_6_" gradientUnits="userSpaceOnUse" x1="109.707" x2="369.222" y1="120.5" y2="120.5"><stop offset="0" stop-color="#fe646f"/><stop offset=".5725" stop-color="#fb2b3a"/><stop offset="1" stop-color="#c41926"/></linearGradient><linearGradient id="lg3"><stop offset="0" stop-color="#537983"/><stop offset="1" stop-color="#3e5959"/></linearGradient><linearGradient id="SVGID_8_" gradientUnits="userSpaceOnUse" x1="108.613" x2="368.1" xlink:href="#lg3" y1="251.511" y2="251.511"/><linearGradient id="SVGID_9_" gradientUnits="userSpaceOnUse" x1="108.613" x2="368.1" xlink:href="#lg3" y1="327.693" y2="327.693"/><linearGradient id="SVGID_10_" gradientUnits="userSpaceOnUse" x1="108.613" x2="368.1" xlink:href="#lg3" y1="403.875" y2="403.875"/><g><path d="m426.11 29.99h-302.2c-14.57 0-26.381 11.811-26.381 26.381v427.248c0 14.57 11.811 26.381 26.381 26.381h302.2c14.57 0 26.381-11.811 26.381-26.381v-427.248c0-14.57-11.811-26.381-26.381-26.381z" fill="url(#SVGID_1_)"/><path d="m426.11 29.99h-40.02c14.57 0 26.381 11.811 26.381 26.381v427.248c0 14.57-11.811 26.381-26.381 26.381h40.02c14.57 0 26.381-11.811 26.381-26.381v-427.248c0-14.57-11.811-26.381-26.381-26.381z" fill="url(#SVGID_2_)"/><path d="m296.406 480.01h-212.516c-14.57 0-26.381-11.811-26.381-26.381v-427.248c0-14.57 11.811-26.381 26.381-26.381h302.2c14.57 0 26.381 11.811 26.381 26.381v337.564z" fill="url(#SVGID_3_)"/><path d="m386.09 0h-40.02c14.57 0 26.381 11.811 26.381 26.381v337.564h-77.816c-12.835 0-23.24 10.405-23.24 23.24v92.825h25.011l116.066-116.065v-337.564c-.001-14.57-11.812-26.381-26.382-26.381z" fill="url(#SVGID_4_)"/><path d="m296.406 480.01v-92.825c0-12.835 10.405-23.24 23.24-23.24h92.825c0 64.101-51.964 116.065-116.065 116.065z" fill="url(#SVGID_5_)"/><g fill="url(#SVGID_6_)"><path d="m209.327 51.671c-2.392-7.611-12.178-11.308-22.182-11.308-10.003 0-19.79 3.696-22.182 11.308l-40.449 132.656c-.217.869-.435 1.739-.435 2.392 0 8.047 12.396 13.918 21.747 13.918 5.437 0 9.786-1.739 11.091-6.307l7.394-27.184h45.886l7.394 27.184c1.305 4.567 5.654 6.307 11.091 6.307 9.351 0 21.747-5.871 21.747-13.918 0-.652-.217-1.522-.435-2.392zm-38.056 89.38 15.875-58.281 15.875 58.281z"/><path d="m335.461 106.69h-20.877v-20.877c0-5.219-5.437-10.438-13.7-10.438-7.829 0-13.918 5.22-13.918 10.438v20.877h-21.095c-6.089 0-10.221 6.089-10.221 13.918 0 8.264 4.132 13.701 10.221 13.701h21.095v21.094c0 6.089 6.089 10.222 13.918 10.222 8.264 0 13.7-4.133 13.7-10.222v-21.094h20.877c5.219 0 10.438-5.438 10.438-13.701.001-7.829-5.219-13.918-10.438-13.918z"/></g><g><path d="m364.105 233.743h-258.23c-3.239 0-5.865 2.626-5.865 5.865v23.806c0 3.239 2.626 5.865 5.865 5.865h258.23c3.239 0 5.865-2.626 5.865-5.865v-23.806c0-3.239-2.626-5.865-5.865-5.865z" fill="url(#SVGID_8_)"/><path d="m364.105 309.925h-258.23c-3.239 0-5.865 2.626-5.865 5.865v23.806c0 3.239 2.626 5.865 5.865 5.865h258.23c3.239 0 5.865-2.626 5.865-5.865v-23.806c0-3.239-2.626-5.865-5.865-5.865z" fill="url(#SVGID_9_)"/><path d="m220.071 386.107h-114.196c-3.239 0-5.865 2.626-5.865 5.865v23.806c0 3.239 2.626 5.865 5.865 5.865h114.196c3.239 0 5.865-2.626 5.865-5.865v-23.806c0-3.239-2.626-5.865-5.865-5.865z" fill="url(#SVGID_10_)"/></g></g></svg>